<svg version="1.0" xmlns="http://www.w3.org/2000/svg" width="1701.000000pt" height="799.000000pt" viewBox="0 0 1701.000000 799.000000" preserveAspectRatio="xMidYMid meet">

<g transform="translate(0.000000,799.000000) scale(0.100000,-0.100000)" fill="#003468" stroke="none">
<path d="M2882 7945 l-40 -35 19 -61 c18 -57 26 -149 13 -149 -3 0 -90 61 -193 135 -103 74 -190 135 -193 135 -10 0 30 -167 48 -202 25 -49 322 -421 347 -435 12 -7 41 -13 65 -13 l42 0 0 -62 0 -61 -55 -52 c-46 -43 -55 -56 -55 -85 0 -40 8 -54 33 -63 12 -4 17 -17 17 -42 l0 -35 60 0 60 0 0 -70 0 -70 -45 0 -45 0 0 -170 0 -170 -221 0 -222 0 7 -107 c11 -169 66 -263 190 -323 57 -28 59 -30 29 -30 l-33 0 0 -155 0 -155 40 0 40 0 0 -1930 0 -1930 -80 0 -80 0 0 -160 0 -160 -165 0 -165 0 0 -105 0 -105 -69 0 c-39 0 -72 -4 -76 -9 -3 -6 10 -49 30 -97 l35 -88 0 -488 0 -488 -85 0 -85 0 0 1915 0 1915 -80 0 -80 0 0 125 0 125 -100 0 -100 0 0 70 0 70 -665 0 -665 0 0 -70 0 -70 -100 0 -100 0 0 -125 0 -125 -80 0 -80 0 0 -1970 0 -1970 8506 0 8507 0 -6 83 c-4 45 -7 925 -7 1955 l0 1872 -140 0 -140 0 0 130 0 130 -715 0 -715 0 0 -130 0 -130 -145 0 -145 0 -2 -1062 -3 -1061 -220 184 c-488 408 -730 612 -942 791 l-222 188 -110 0 -111 0 0 174 c0 142 3 176 15 186 19 16 19 59 0 66 -22 9 -22 199 0 208 8 3 15 17 15 31 l0 25 -590 0 -590 0 0 -25 c0 -14 7 -28 15 -31 22 -9 22 -199 0 -208 -8 -3 -15 -16 -15 -29 0 -14 7 -30 15 -37 12 -10 15 -44 15 -186 l0 -174 -100 0 -101 0 -247 -207 c-136 -114 -512 -430 -837 -703 -703 -590 -727 -610 -737 -610 -4 0 -8 124 -8 275 l0 275 40 0 40 0 0 149 c0 123 3 150 15 155 8 3 15 14 15 24 0 10 14 26 30 35 32 19 39 44 15 53 -8 4 -15 13 -15 20 0 8 -7 17 -15 20 -8 4 -15 14 -15 24 0 10 -7 23 -15 30 -12 10 -15 47 -15 211 l0 199 -315 0 -315 0 0 229 0 230 -37 3 c-31 2 -39 7 -41 25 -3 23 -18 30 -77 35 -25 3 -32 10 -47 51 -85 229 -466 465 -883 547 -55 11 -110 23 -122 25 -22 5 -23 10 -23 100 l0 95 -115 0 -115 0 0 -50 0 -50 -54 0 -54 0 -7 78 c-33 357 -241 664 -560 824 -70 36 -221 88 -253 88 -9 0 -34 5 -54 11 -37 10 -38 12 -38 54 0 31 4 45 14 45 20 0 26 55 26 273 l0 197 -45 0 -45 0 0 -60 0 -60 -44 0 -44 0 -6 54 c-7 54 -8 55 -47 61 l-39 7 0 54 c0 40 4 54 14 54 8 0 22 10 30 22 14 20 14 24 -4 43 -11 12 -20 26 -20 32 0 6 26 38 58 70 57 58 112 146 100 159 -4 3 -38 -17 -76 -45 -38 -28 -73 -51 -77 -51 -4 0 -13 7 -20 17 -16 22 -45 10 -45 -19 -1 -23 -1 -23 -16 -3 -10 14 -13 32 -8 62 5 36 3 43 -10 43 -12 0 -16 -9 -16 -35 0 -19 -3 -35 -6 -35 -4 0 -29 16 -56 36 -28 19 -53 33 -56 29 -19 -19 111 -195 144 -195 21 0 17 -41 -6 -65 -18 -19 -18 -23 -4 -43 8 -12 22 -22 30 -22 10 0 14 -14 14 -55 l0 -55 -45 0 -45 0 0 -60 0 -60 -45 0 -45 0 0 60 0 60 -46 0 -46 0 4 -232 c2 -174 6 -232 16 -236 7 -2 12 -22 12 -52 l0 -48 -52 -7 c-121 -16 -316 -97 -433 -180 -82 -58 -186 -170 -252 -272 -93 -142 -142 -289 -159 -472 l-7 -71 -53 0 -54 0 0 50 0 50 -115 0 -115 0 0 -89 c0 -59 -4 -92 -12 -98 -7 -6 -56 -18 -110 -26 -258 -43 -586 -195 -751 -347 -76 -70 -140 -160 -159 -222 -11 -36 -13 -38 -52 -38 -48 0 -62 -8 -67 -35 -3 -15 -13 -21 -42 -23 l-37 -3 0 -230 0 -229 -320 0 -320 0 0 -204 c0 -126 -4 -207 -10 -211 -6 -3 -10 -14 -10 -25 0 -10 -7 -20 -15 -24 -8 -3 -15 -12 -15 -20 0 -7 -7 -16 -15 -20 -24 -9 -17 -34 15 -53 17 -9 30 -25 30 -35 0 -9 4 -19 9 -22 5 -3 12 -63 15 -133 9 -174 9 -173 51 -173 l35 0 0 -245 0 -245 -60 0 -60 0 0 160 0 160 -85 0 -85 0 0 1930 0 1930 45 0 45 0 0 155 0 155 -37 0 c-37 0 -37 1 34 35 77 38 110 70 149 147 24 46 44 159 44 246 l0 32 -220 0 -220 0 0 170 0 170 -45 0 -45 0 0 69 0 70 53 3 c47 3 52 5 55 28 2 14 17 37 33 52 47 43 40 80 -26 143 -55 53 -55 54 -55 113 l0 60 58 7 59 7 164 209 c90 116 169 220 176 233 12 22 44 188 38 194 -4 4 -379 -266 -453 -325 -23 -19 -52 -53 -65 -76 l-22 -42 -2 45 c-2 25 -5 69 -9 98 l-5 52 -54 0 -54 0 -3 -97 -3 -98 -28 47 c-15 26 -41 56 -57 68 -29 20 -30 25 -30 96 0 72 1 74 24 74 29 0 36 9 47 58 9 42 0 63 -41 92 l-29 21 -39 -36z" fill="#003468"/>
</g>
</svg>